<?xml version="1.0" encoding="UTF-8" standalone="no"?>
<!-- Generator: Adobe Illustrator 16.2.1, SVG Export Plug-In . SVG Version: 6.00 Build 0)  -->

<svg
   xmlns:dc="http://purl.org/dc/elements/1.1/"
   xmlns:cc="http://creativecommons.org/ns#"
   xmlns:rdf="http://www.w3.org/1999/02/22-rdf-syntax-ns#"
   xmlns:svg="http://www.w3.org/2000/svg"
   xmlns="http://www.w3.org/2000/svg"
   xmlns:sodipodi="http://sodipodi.sourceforge.net/DTD/sodipodi-0.dtd"
   xmlns:inkscape="http://www.inkscape.org/namespaces/inkscape"
   version="1.1"
   id="Layer_1"
   x="0px"
   y="0px"
   width="24"
   height="24"
   viewBox="0 0 24 24"
   enable-background="new 0 0 512 512"
   xml:space="preserve"
   inkscape:version="0.91 r13725"
   sodipodi:docname="android-gift.svg"><metadata
     id="metadata4359"><rdf:RDF><cc:Work
         rdf:about=""><dc:format>image/svg+xml</dc:format><dc:type
           rdf:resource="http://purl.org/dc/dcmitype/StillImage" /><dc:title></dc:title></cc:Work></rdf:RDF></metadata><defs
     id="defs4357" /><sodipodi:namedview
     pagecolor="#cccccc"
     bordercolor="#666666"
     borderopacity="1"
     objecttolerance="10"
     gridtolerance="10"
     guidetolerance="10"
     inkscape:pageopacity="0"
     inkscape:pageshadow="2"
     inkscape:window-width="1920"
     inkscape:window-height="1170"
     id="namedview4355"
     showgrid="true"
     inkscape:zoom="18.870912"
     inkscape:cx="20.732155"
     inkscape:cy="7.8238454"
     inkscape:window-x="3840"
     inkscape:window-y="0"
     inkscape:window-maximized="1"
     inkscape:current-layer="g4188"
     showguides="true"
     inkscape:guide-bbox="true"><inkscape:grid
       type="xygrid"
       id="grid4395" /></sodipodi:namedview><g
     style="fill:#ffffff;fill-opacity:1"
     transform="matrix(0.42056075,0,0,0.42056075,148.33645,-373.66355)"
     id="g4397"><g
       style="fill:#ffffff;fill-opacity:1"
       id="g4399" /></g><g
     id="Icon_2_"
     transform="matrix(0.04205607,0,0,0.04205607,1.2336451,-0.7663529)"
     style="fill:#b9b9b9;fill-opacity:1"><g
       id="g4143"
       style="fill:#b9b9b9;fill-opacity:1" /></g><g
     id="Icon_2_-7"
     transform="matrix(0.04672897,0,0,0.04672897,0.03738326,0.0373841)"><g
       id="g4188"><g
         id="g4211"
         transform="matrix(0.44169249,0,0,0.44169249,148.66211,181.09999)"><g
           id="g4170"><g
             id="keyboard-voice" /></g><g
           id="g4175" /><g
           id="g4177" /><g
           id="g4179" /><g
           id="g4181" /><g
           id="g4183" /><g
           id="g4185" /><g
           id="g4187" /><g
           id="g4189" /><g
           id="g4191" /><g
           id="g4193" /><g
           id="g4195" /><g
           id="g4197" /><g
           id="g4199" /><g
           id="g4201" /><g
           id="g4203" /></g><path
         style="fill:#000000"
         d="M 99.351992,469.31364 C 76.291574,466.01123 60.520707,442.49333 63.565831,419.98789 63.506848,358.26325 63.447865,296.53861 63.388882,234.81397 c 49.865688,0 99.731388,0 149.597078,0 0,78.324 0,156.64799 0,234.97199 -37.8765,-0.16684 -75.7685,0.32456 -113.633968,-0.47232 z M 299.01396,234.81397 c 49.8657,0 99.7314,0 149.5971,0 -0.24951,66.25045 0.2465,132.58659 -0.46822,198.78357 -3.45546,23.72457 -27.78088,39.93519 -51.07568,35.99258 -32.6842,0.12777 -65.36874,0.13919 -98.0531,0.20802 -3e-5,-78.32806 -7e-5,-156.65611 -10e-5,-234.98417 z M 42.293432,188.34922 c 0.04338,-16.10945 -2.132978,-34.23207 10.98834,-46.53377 11.795407,-14.66183 31.272939,-14.50363 48.371568,-14.28934 -26.310652,-26.87469 -20.234679,-75.571969 11.41581,-95.623984 32.17997,-22.5039805 75.07915,-7.60127 101.61291,16.822989 8.37164,6.925484 14.78448,17.97643 27.06372,14.674863 13.22326,0 26.44652,0 39.66978,0 C 306.32131,37.566947 341.64492,13.29241 379.2816,22.862 c 38.28659,8.897723 60.06852,56.854311 40.47483,91.20814 -6.17295,9.05629 -13.58186,16.20957 1.67473,13.61972 26.42852,-3.62803 51.72586,20.74782 48.21573,47.18392 0.0563,12.70406 0.11246,25.40813 0.16867,38.11219 -56.93283,0 -113.86567,0 -170.7985,0 -0.0547,-21.3465 -0.10933,-42.693 -0.164,-64.0395 -28.569,0 -57.138,0 -85.707,0 -0.0547,21.3465 -0.10933,42.693 -0.164,64.0395 -56.93283,0 -113.865665,0 -170.798498,0 0.03688,-8.21199 0.07166,-16.42609 0.10987,-24.63675 z M 211.70196,106.17229 C 195.90357,87.178385 175.41872,68.667276 150.58179,63.471533 c -31.34565,-3.251966 -28.08596,48.616727 2.31605,42.772917 19.59989,0.10739 39.20734,0.29376 58.80412,-0.0722 z m 156.8085,-0.52308 c 29.24577,-6.966695 12.75753,-53.165493 -14.1845,-40.697633 -19.28616,7.19548 -47.29328,27.215777 -51.41278,41.321983 21.84865,-0.1099 43.80167,0.61923 65.59728,-0.62435 z"
         id="path4188"
         inkscape:connector-curvature="0" /></g></g></svg>