<?xml version="1.0" encoding="UTF-8" standalone="no"?>
<!-- Generator: Adobe Illustrator 16.2.1, SVG Export Plug-In . SVG Version: 6.00 Build 0)  -->

<svg
   xmlns:dc="http://purl.org/dc/elements/1.1/"
   xmlns:cc="http://creativecommons.org/ns#"
   xmlns:rdf="http://www.w3.org/1999/02/22-rdf-syntax-ns#"
   xmlns:svg="http://www.w3.org/2000/svg"
   xmlns="http://www.w3.org/2000/svg"
   xmlns:sodipodi="http://sodipodi.sourceforge.net/DTD/sodipodi-0.dtd"
   xmlns:inkscape="http://www.inkscape.org/namespaces/inkscape"
   version="1.1"
   id="Layer_1"
   x="0px"
   y="0px"
   width="24"
   height="24"
   viewBox="0 0 24 24"
   enable-background="new 0 0 512 512"
   xml:space="preserve"
   inkscape:version="0.91 r13725"
   sodipodi:docname="android-textclock.svg"><metadata
     id="metadata4359"><rdf:RDF><cc:Work
         rdf:about=""><dc:format>image/svg+xml</dc:format><dc:type
           rdf:resource="http://purl.org/dc/dcmitype/StillImage" /><dc:title></dc:title></cc:Work></rdf:RDF></metadata><defs
     id="defs4357" /><sodipodi:namedview
     pagecolor="#cccccc"
     bordercolor="#666666"
     borderopacity="1"
     objecttolerance="10"
     gridtolerance="10"
     guidetolerance="10"
     inkscape:pageopacity="0"
     inkscape:pageshadow="2"
     inkscape:window-width="1920"
     inkscape:window-height="1023"
     id="namedview4355"
     showgrid="true"
     inkscape:zoom="18.870912"
     inkscape:cx="-15.795008"
     inkscape:cy="4.7077384"
     inkscape:window-x="1920"
     inkscape:window-y="246"
     inkscape:window-maximized="1"
     inkscape:current-layer="g4188"
     showguides="true"
     inkscape:guide-bbox="true"><inkscape:grid
       type="xygrid"
       id="grid4395" /></sodipodi:namedview><g
     style="fill:#ffffff;fill-opacity:1"
     transform="matrix(0.42056075,0,0,0.42056075,148.33645,-373.66355)"
     id="g4397"><g
       style="fill:#ffffff;fill-opacity:1"
       id="g4399" /></g><g
     id="Icon_2_"
     transform="matrix(0.04205607,0,0,0.04205607,1.2336451,-0.7663529)"
     style="fill:#b9b9b9;fill-opacity:1"><g
       id="g4143"
       style="fill:#b9b9b9;fill-opacity:1" /></g><g
     id="Icon_2_-7"
     transform="matrix(0.04672897,0,0,0.04672897,0.03738326,0.0373841)"><g
       id="g4188"><path
         d="M 6.5507812 2 L 2 5.8710938 L 3.2988281 7.4082031 L 7.8496094 3.5390625 L 6.5507812 2 z M 17.400391 2.0488281 L 16.099609 3.5878906 L 20.701172 7.4101562 L 22 5.8710938 L 17.400391 2.0488281 z M 12 4.1347656 C 7.0000002 4.1347656 3 8.1530887 3 13.066406 C 3 17.979911 7.0000002 22 12 22 C 16.95028 22 21 17.979911 21 13.066406 C 21 8.1531354 16.95028 4.1347656 12 4.1347656 z M 12 6.1191406 C 15.850187 6.1191406 19 9.2450045 19 13.066406 C 19 16.937387 15.850187 20.015625 12 20.015625 C 8.14986 20.015625 5 16.887995 5 13.066406 C 5 9.2450513 8.14986 6.1191406 12 6.1191406 z M 8 9 L 8 11 L 17 11 L 17 9 L 8 9 z M 7 12 L 7 14 L 14 14 L 14 12 L 7 12 z M 9 15 L 9 17 L 16 17 L 16 15 L 9 15 z "
         transform="matrix(21.400001,0,0,21.400001,-0.8000018,-0.80001977)"
         id="path4190" /></g></g></svg>