<?xml version="1.0" encoding="UTF-8" standalone="no"?>
<!-- Generator: Adobe Illustrator 16.2.1, SVG Export Plug-In . SVG Version: 6.00 Build 0)  -->

<svg
   xmlns:dc="http://purl.org/dc/elements/1.1/"
   xmlns:cc="http://creativecommons.org/ns#"
   xmlns:rdf="http://www.w3.org/1999/02/22-rdf-syntax-ns#"
   xmlns:svg="http://www.w3.org/2000/svg"
   xmlns="http://www.w3.org/2000/svg"
   xmlns:sodipodi="http://sodipodi.sourceforge.net/DTD/sodipodi-0.dtd"
   xmlns:inkscape="http://www.inkscape.org/namespaces/inkscape"
   version="1.1"
   id="Layer_1"
   x="0px"
   y="0px"
   width="24"
   height="24"
   viewBox="0 0 24 24"
   enable-background="new 0 0 512 512"
   xml:space="preserve"
   inkscape:version="0.91 r13725"
   sodipodi:docname="android-closeclock.svg"><metadata
     id="metadata4359"><rdf:RDF><cc:Work
         rdf:about=""><dc:format>image/svg+xml</dc:format><dc:type
           rdf:resource="http://purl.org/dc/dcmitype/StillImage" /><dc:title></dc:title></cc:Work></rdf:RDF></metadata><defs
     id="defs4357" /><sodipodi:namedview
     pagecolor="#cccccc"
     bordercolor="#666666"
     borderopacity="1"
     objecttolerance="10"
     gridtolerance="10"
     guidetolerance="10"
     inkscape:pageopacity="0"
     inkscape:pageshadow="2"
     inkscape:window-width="1920"
     inkscape:window-height="1023"
     id="namedview4355"
     showgrid="true"
     inkscape:zoom="9.435456"
     inkscape:cx="20.599096"
     inkscape:cy="5.3029377"
     inkscape:window-x="0"
     inkscape:window-y="27"
     inkscape:window-maximized="1"
     inkscape:current-layer="g4188"
     showguides="true"
     inkscape:guide-bbox="true"><inkscape:grid
       type="xygrid"
       id="grid4395" /></sodipodi:namedview><g
     style="fill:#ffffff;fill-opacity:1"
     transform="matrix(0.42056075,0,0,0.42056075,148.33645,-373.66355)"
     id="g4397"><g
       style="fill:#ffffff;fill-opacity:1"
       id="g4399" /></g><g
     id="Icon_2_"
     transform="matrix(0.04205607,0,0,0.04205607,1.2336451,-0.7663529)"
     style="fill:#b9b9b9;fill-opacity:1"><g
       id="g4143"
       style="fill:#b9b9b9;fill-opacity:1" /></g><g
     id="Icon_2_-7"
     transform="matrix(0.04672897,0,0,0.04672897,0.03738326,0.0373841)"><g
       id="g4188"><path
         d="M 6.5507812,2 2,5.8710938 3.2988281,7.4082031 7.8496094,3.5390625 Z M 17.400391,2.0488281 16.099609,3.5878906 20.701172,7.4101562 22,5.8710938 Z M 12,4.1347656 c -4.9999998,0 -9,4.0183231 -9,8.9316404 C 3,17.979911 7.0000002,22 12,22 c 4.95028,0 9,-4.020089 9,-8.933594 0,-4.9132706 -4.04972,-8.9316404 -9,-8.9316404 z m 0,1.984375 c 3.850187,0 7,3.1258639 7,6.9472654 0,3.870981 -3.149813,6.949219 -7,6.949219 -3.85014,0 -7,-3.12763 -7,-6.949219 0,-3.8213547 3.14986,-6.9472654 7,-6.9472654 z"
         transform="matrix(21.400001,0,0,21.400001,-0.8000018,-0.80001977)"
         id="path4190"
         inkscape:connector-curvature="0"
         sodipodi:nodetypes="ccccccccccssssssssss" /><rect
         style="opacity:1;fill:#000000;fill-opacity:1;stroke:none;stroke-width:46.60920334;stroke-linecap:round;stroke-linejoin:round;stroke-miterlimit:4;stroke-dasharray:none;stroke-opacity:1"
         id="rect4159"
         width="192.60001"
         height="42.800003"
         x="-111.76234"
         y="358.79718"
         transform="matrix(0.70710678,-0.70710678,0.70710678,0.70710678,0,0)" /><rect
         transform="matrix(-0.70710678,-0.70710678,0.70710678,-0.70710678,0,0)"
         y="-36.862328"
         x="-476.49719"
         height="42.800003"
         width="192.60001"
         id="rect4161"
         style="opacity:1;fill:#000000;fill-opacity:1;stroke:none;stroke-width:46.60920334;stroke-linecap:round;stroke-linejoin:round;stroke-miterlimit:4;stroke-dasharray:none;stroke-opacity:1" /></g></g></svg>