<?xml version="1.0" encoding="UTF-8" standalone="no"?>
<!-- Created with Inkscape (http://www.inkscape.org/) -->

<svg
   xmlns:dc="http://purl.org/dc/elements/1.1/"
   xmlns:cc="http://creativecommons.org/ns#"
   xmlns:rdf="http://www.w3.org/1999/02/22-rdf-syntax-ns#"
   xmlns:svg="http://www.w3.org/2000/svg"
   xmlns="http://www.w3.org/2000/svg"
   xmlns:sodipodi="http://sodipodi.sourceforge.net/DTD/sodipodi-0.dtd"
   xmlns:inkscape="http://www.inkscape.org/namespaces/inkscape"
   width="24"
   height="24"
   id="svg4830"
   version="1.1"
   inkscape:version="0.91 r13725"
   inkscape:export-filename="/home/joker/Project/Scratcheck/TestExport.png"
   inkscape:export-xdpi="90"
   inkscape:export-ydpi="90"
   sodipodi:docname="ic_notification.svg">
  <defs
     id="defs4832">
    <filter
       style="color-interpolation-filters:sRGB"
       inkscape:label="Drop Shadow"
       id="filter8967">
      <feFlood
         flood-opacity="0.2"
         flood-color="rgb(0,0,0)"
         result="flood"
         id="feFlood8969" />
      <feComposite
         in="flood"
         in2="SourceGraphic"
         operator="in"
         result="composite1"
         id="feComposite8971" />
      <feGaussianBlur
         in="composite1"
         stdDeviation="4"
         result="blur"
         id="feGaussianBlur8973" />
      <feOffset
         dx="0"
         dy="4"
         result="offset"
         id="feOffset8975" />
      <feComposite
         in="SourceGraphic"
         in2="offset"
         operator="over"
         result="composite2"
         id="feComposite8977" />
    </filter>
  </defs>
  <sodipodi:namedview
     id="base"
     pagecolor="#b4b4b4"
     bordercolor="#666666"
     borderopacity="1.0"
     inkscape:pageopacity="0"
     inkscape:pageshadow="2"
     inkscape:zoom="11.197802"
     inkscape:cx="25.63212"
     inkscape:cy="11.617713"
     inkscape:current-layer="g8959"
     showgrid="true"
     inkscape:grid-bbox="true"
     inkscape:document-units="px"
     inkscape:window-width="1920"
     inkscape:window-height="1143"
     inkscape:window-x="3840"
     inkscape:window-y="27"
     inkscape:window-maximized="1">
    <sodipodi:guide
       position="0.99999471,22.999999"
       orientation="22,0"
       id="guide2987" />
    <sodipodi:guide
       position="0.99999471,0.99999888"
       orientation="0,22"
       id="guide2989" />
    <sodipodi:guide
       position="22.999995,0.99999888"
       orientation="-22,0"
       id="guide2991" />
    <sodipodi:guide
       position="22.999995,22.999999"
       orientation="0,-22"
       id="guide2993" />
    <inkscape:grid
       type="xygrid"
       id="grid2989" />
  </sodipodi:namedview>
  <metadata
     id="metadata4835">
    <rdf:RDF>
      <cc:Work
         rdf:about="">
        <dc:format>image/svg+xml</dc:format>
        <dc:type
           rdf:resource="http://purl.org/dc/dcmitype/StillImage" />
        <dc:title></dc:title>
      </cc:Work>
    </rdf:RDF>
  </metadata>
  <g
     id="layer1"
     inkscape:label="Layer 1"
     inkscape:groupmode="layer"
     transform="translate(0,-8)">
    <g
       id="g4770"
       transform="matrix(1.7777778,0,0,1.7777778,-205.48441,-31.997877)">
      <g
         transform="matrix(0.10044642,0,0,0.10044642,112.69212,19.826932)"
         id="g8959"
         style="display:inline;filter:url(#filter8967)">
        <path
           style="opacity:1;fill:#ffffff;fill-opacity:1;stroke:none;stroke-width:2;stroke-miterlimit:4;stroke-dasharray:none;stroke-opacity:1"
           d="M 3.6074219 12.392578 C 2.7170648 12.392578 2 13.109643 2 14 L 2 16.296875 L 2.25 16.710938 C 2.3570334 16.726973 2.4479653 16.771869 2.4980469 16.816406 C 2.5121838 16.828985 2.5132924 16.832054 2.5253906 16.84375 C 2.5733474 16.786084 2.6232535 16.741716 2.6621094 16.625 C 2.7197894 16.451741 2.7571004 16.229767 2.7929688 16.009766 C 2.8288373 15.789766 2.8598333 15.574689 2.9316406 15.384766 C 2.9675442 15.289803 3.0141146 15.19532 3.1015625 15.115234 C 3.1890104 15.035149 3.3299636 14.98715 3.4570312 15.001953 C 3.6661093 15.026308 3.842248 15.134822 4.015625 15.277344 C 4.189002 15.419865 4.3563742 15.604384 4.5058594 15.810547 C 4.8047601 16.222774 5.0450062 16.717943 5.0351562 17.195312 C 5.0272289 17.603037 5.119286 17.853949 5.1972656 17.972656 C 5.201821 17.979585 5.2006246 17.976422 5.2050781 17.982422 C 5.3995411 17.761218 5.478665 17.587599 5.53125 17.365234 C 5.5933689 17.102552 5.6457357 16.75303 5.8984375 16.298828 L 5.9042969 16.287109 L 5.9121094 16.277344 C 6.1267642 15.969188 6.4611982 15.445358 6.8203125 15.074219 C 6.9998696 14.888651 7.1812448 14.729299 7.4179688 14.669922 C 7.5363305 14.640234 7.6764997 14.64609 7.7988281 14.707031 C 7.9211567 14.767972 8.0138205 14.872118 8.0820312 14.998047 C 8.3119418 15.422497 8.398997 15.8839 8.5039062 16.232422 C 8.5563611 16.406683 8.6144993 16.551531 8.6757812 16.644531 C 8.7370634 16.737533 8.7876155 16.778299 8.8730469 16.800781 C 8.8561049 16.796322 8.8856121 16.803507 8.9570312 16.765625 C 9.0284505 16.727741 9.1291869 16.655621 9.2402344 16.558594 C 9.4623294 16.364542 9.7293942 16.079683 10.005859 15.798828 C 10.282325 15.517973 10.566992 15.240473 10.855469 15.048828 C 10.999707 14.953007 11.144534 14.875374 11.304688 14.839844 C 11.464842 14.804313 11.648647 14.819572 11.802734 14.912109 C 12.008927 15.035938 12.102252 15.237668 12.193359 15.476562 C 12.284467 15.715457 12.35803 16.002634 12.421875 16.314453 C 12.549566 16.938094 12.636033 17.659072 12.701172 18.216797 C 12.734108 18.498791 12.713343 18.856928 12.701172 19.189453 C 12.689002 19.52198 12.70453 19.853715 12.71875 19.896484 C 12.731986 19.93629 12.76801 19.978368 12.822266 20.013672 C 12.876523 20.048975 12.949022 20.069926 12.964844 20.072266 C 12.947556 20.0697 12.951007 20.08525 12.984375 20.033203 C 13.017741 19.981158 13.050837 19.878292 13.041016 19.751953 C 13.014155 19.406196 12.936186 18.973784 13.068359 18.474609 C 13.100784 18.352154 13.131902 18.098912 13.224609 17.845703 C 13.317317 17.592494 13.500018 17.308885 13.833984 17.197266 C 13.873586 17.18403 13.894037 17.163651 13.925781 17.080078 C 13.957526 16.996505 13.977703 16.863487 13.986328 16.722656 C 13.994953 16.581826 13.995031 16.434329 14.003906 16.300781 C 14.008342 16.234008 14.013311 16.171723 14.03125 16.103516 C 14.049189 16.035307 14.076953 15.942867 14.189453 15.873047 C 14.549648 15.649499 14.948523 15.712233 15.289062 15.779297 C 15.629602 15.846367 15.938624 15.914155 16.162109 15.861328 C 16.345218 15.818048 16.557456 15.660483 16.792969 15.486328 C 17.028481 15.312175 17.298913 15.110373 17.654297 15.119141 C 17.846383 15.123878 18.135624 15.14822 18.425781 15.263672 C 18.715938 15.379122 19.015322 15.6034 19.160156 15.978516 C 19.364751 16.508433 19.326188 17.104827 19.359375 17.583984 C 19.37597 17.823565 19.410796 18.031233 19.472656 18.173828 C 19.529569 18.305021 19.600241 18.379524 19.726562 18.433594 C 19.73142 18.42954 19.727429 18.433031 19.734375 18.425781 C 19.778639 18.379519 19.84712 18.27396 19.921875 18.160156 C 19.99663 18.046351 20.075169 17.919557 20.214844 17.820312 C 20.354519 17.721075 20.605958 17.696602 20.783203 17.810547 C 21.126619 18.031313 21.190797 18.431496 21.248047 18.75 C 21.276672 18.90925 21.298694 19.057026 21.324219 19.158203 C 21.335754 19.203707 21.32683 19.187137 21.335938 19.205078 C 21.360868 19.190742 21.377738 19.18345 21.412109 19.15625 C 21.474731 19.106694 21.746939 18.823452 22 18.568359 L 22 14 C 22 13.109643 21.282935 12.392578 20.392578 12.392578 L 3.6074219 12.392578 z M 7.5390625 15.154297 C 7.4785727 15.16947 7.3304362 15.266079 7.1796875 15.421875 C 6.8816075 15.729934 6.5565966 16.225807 6.3320312 16.548828 C 6.1214356 16.930608 6.0868438 17.187565 6.0175781 17.480469 C 5.9477337 17.775819 5.8249643 18.105671 5.4648438 18.457031 C 5.3414268 18.577446 5.1581074 18.558524 5.0488281 18.503906 C 4.9395487 18.449288 4.8545745 18.36264 4.7792969 18.248047 C 4.6287417 18.018858 4.5256384 17.670965 4.5351562 17.185547 C 4.5410804 16.901817 4.3571562 16.456016 4.1015625 16.103516 C 3.9737655 15.927264 3.83042 15.771914 3.6992188 15.664062 C 3.579138 15.565354 3.4792202 15.524022 3.4257812 15.511719 C 3.4183489 15.523087 3.4133781 15.528148 3.4003906 15.5625 C 3.3599344 15.669504 3.323109 15.869038 3.2871094 16.089844 C 3.2511099 16.310649 3.212848 16.554525 3.1367188 16.783203 C 3.0605896 17.01188 2.9434751 17.239832 2.7167969 17.376953 C 2.6409921 17.42281 2.5302165 17.434497 2.4550781 17.412109 C 2.3799397 17.38972 2.3353754 17.353949 2.3007812 17.324219 C 2.2582525 17.287669 2.242525 17.267571 2.21875 17.242188 C 2.2146804 17.248491 2.221429 17.23994 2.2167969 17.248047 L 2 17.113281 L 2 20.427734 C 2 21.318091 2.7170648 22.035156 3.6074219 22.035156 L 20.392578 22.035156 C 21.282935 22.035156 22 21.318091 22 20.427734 L 22 19.28125 C 21.910966 19.38149 21.81731 19.473923 21.722656 19.548828 C 21.637362 19.616326 21.552887 19.672467 21.453125 19.708984 C 21.353363 19.745502 21.2127 19.765997 21.083984 19.685547 C 20.911309 19.577627 20.875533 19.422716 20.839844 19.28125 C 20.804154 19.139784 20.78255 18.988335 20.755859 18.839844 C 20.702479 18.542862 20.610246 18.295761 20.511719 18.232422 C 20.467997 18.204311 20.531428 18.208962 20.503906 18.228516 C 20.476387 18.248071 20.408394 18.331192 20.339844 18.435547 C 20.271296 18.539904 20.200733 18.661709 20.095703 18.771484 C 20.043187 18.82637 19.980296 18.880685 19.890625 18.916016 C 19.800955 18.951339 19.681638 18.956274 19.582031 18.919922 C 19.305696 18.819072 19.115556 18.607899 19.013672 18.373047 C 18.911788 18.138193 18.879467 17.881051 18.861328 17.619141 C 18.825046 17.095319 18.842496 16.539408 18.695312 16.158203 C 18.608014 15.9321 18.443779 15.809505 18.240234 15.728516 C 18.03669 15.647526 17.801039 15.623051 17.642578 15.619141 C 17.498989 15.6156 17.316113 15.722795 17.091797 15.888672 C 16.867479 16.054547 16.613926 16.269588 16.275391 16.349609 C 15.883294 16.44229 15.511371 16.332544 15.191406 16.269531 C 14.899844 16.212108 14.681873 16.203316 14.509766 16.283203 C 14.507391 16.3011 14.503739 16.308375 14.501953 16.333984 C 14.49506 16.437838 14.496275 16.591508 14.486328 16.753906 C 14.476385 16.916306 14.458349 17.089798 14.394531 17.257812 C 14.330713 17.425827 14.199345 17.602636 13.992188 17.671875 C 13.838959 17.723087 13.761259 17.83746 13.695312 18.017578 C 13.629366 18.197696 13.602415 18.413941 13.552734 18.601562 C 13.45159 18.983529 13.509541 19.3329 13.539062 19.712891 C 13.556487 19.937182 13.510064 20.140808 13.40625 20.302734 C 13.302436 20.464663 13.111542 20.598908 12.892578 20.566406 C 12.784366 20.550344 12.670871 20.50978 12.550781 20.431641 C 12.430692 20.353501 12.303715 20.231904 12.244141 20.052734 C 12.159514 19.798222 12.18884 19.506859 12.201172 19.169922 C 12.213504 18.832984 12.228653 18.475286 12.205078 18.273438 C 12.14018 17.717775 12.053066 17.007104 11.931641 16.414062 C 11.870928 16.117541 11.80139 15.850502 11.726562 15.654297 C 11.651735 15.458092 11.555732 15.345165 11.546875 15.339844 C 11.512292 15.319076 11.483317 15.312768 11.414062 15.328125 C 11.344808 15.343487 11.243746 15.389851 11.130859 15.464844 C 10.905087 15.614833 10.633793 15.873629 10.363281 16.148438 C 10.092769 16.423245 9.8217881 16.712165 9.5683594 16.933594 C 9.4416449 17.044308 9.3203516 17.140588 9.1914062 17.208984 C 9.0624611 17.277383 8.9129802 17.329074 8.7460938 17.285156 C 8.5316363 17.228721 8.3661855 17.084386 8.2578125 16.919922 C 8.1494395 16.755458 8.083396 16.569655 8.0253906 16.376953 C 7.9093796 15.991551 7.8230422 15.569492 7.6425781 15.236328 C 7.6081953 15.172851 7.5831272 15.157761 7.5761719 15.154297 C 7.5692167 15.150868 7.5693075 15.146708 7.5390625 15.154297 z "
           transform="matrix(5.6000004,0,0,5.6000004,28.800023,26.599988)"
           id="rect4861" />
        <path
           inkscape:connector-curvature="0"
           id="rect4868"
           d="m 89,68 14,0 c 2.216,0 4,1.784 4,4 l 0,22 c 0,2.216 -1.784,4 -4,4 l -14,0 c -2.216,0 -4,-1.784 -4,-4 l 0,-22 c 0,-2.216 1.784,-4 4,-4 z"
           style="opacity:1;fill:#f7f7f7;fill-opacity:1;stroke:none;stroke-width:2;stroke-miterlimit:4;stroke-dasharray:none;stroke-opacity:1;" />
        <path
           style="fill:#ffffff;fill-opacity:1;fill-rule:evenodd;stroke:none;stroke-width:1px;stroke-linecap:butt;stroke-linejoin:miter;stroke-opacity:1"
           d="m 95.750001,39.999999 c 0,0 1,6.75 -0.75,7.25 -1.75,0.5 -4.613496,2.794916 -5.43934,5.15165 -0.915662,2.613053 -0.238672,5.829546 1.146447,8.22703 1.158512,2.005253 5.482233,4.267767 5.482233,4.267767 0,0 8.387579,-4.952175 7.300259,-11.580583 -0.8942,-5.451082 -7.739599,-13.315864 -7.739599,-13.315864 z"
           id="path4870"
           inkscape:connector-curvature="0"
           sodipodi:nodetypes="csaacsc" />
      </g>
    </g>
  </g>
</svg>
