<?xml version="1.0" encoding="UTF-8" standalone="no"?>
<!-- Created with Inkscape (http://www.inkscape.org/) -->

<svg
   xmlns:dc="http://purl.org/dc/elements/1.1/"
   xmlns:cc="http://creativecommons.org/ns#"
   xmlns:rdf="http://www.w3.org/1999/02/22-rdf-syntax-ns#"
   xmlns:svg="http://www.w3.org/2000/svg"
   xmlns="http://www.w3.org/2000/svg"
   xmlns:sodipodi="http://sodipodi.sourceforge.net/DTD/sodipodi-0.dtd"
   xmlns:inkscape="http://www.inkscape.org/namespaces/inkscape"
   width="24"
   height="24"
   id="svg4830"
   version="1.1"
   inkscape:version="0.91 r13725"
   inkscape:export-filename="/home/joker/Project/Scratcheck/TestExport.png"
   inkscape:export-xdpi="90"
   inkscape:export-ydpi="90"
   sodipodi:docname="ic_notification.svg">
  <defs
     id="defs4832">
    <filter
       style="color-interpolation-filters:sRGB"
       inkscape:label="Drop Shadow"
       id="filter8967">
      <feFlood
         flood-opacity="0.2"
         flood-color="rgb(0,0,0)"
         result="flood"
         id="feFlood8969" />
      <feComposite
         in="flood"
         in2="SourceGraphic"
         operator="in"
         result="composite1"
         id="feComposite8971" />
      <feGaussianBlur
         in="composite1"
         stdDeviation="4"
         result="blur"
         id="feGaussianBlur8973" />
      <feOffset
         dx="0"
         dy="4"
         result="offset"
         id="feOffset8975" />
      <feComposite
         in="SourceGraphic"
         in2="offset"
         operator="over"
         result="composite2"
         id="feComposite8977" />
    </filter>
  </defs>
  <sodipodi:namedview
     id="base"
     pagecolor="#b4b4b4"
     bordercolor="#666666"
     borderopacity="1.0"
     inkscape:pageopacity="0"
     inkscape:pageshadow="2"
     inkscape:zoom="11.197802"
     inkscape:cx="-9.4919319"
     inkscape:cy="9.4982662"
     inkscape:current-layer="g8959"
     showgrid="false"
     inkscape:grid-bbox="true"
     inkscape:document-units="px"
     inkscape:window-width="1920"
     inkscape:window-height="1023"
     inkscape:window-x="0"
     inkscape:window-y="246"
     inkscape:window-maximized="1">
    <sodipodi:guide
       position="0.99999471,22.999999"
       orientation="22,0"
       id="guide2987" />
    <sodipodi:guide
       position="0.99999471,0.99999888"
       orientation="0,22"
       id="guide2989" />
    <sodipodi:guide
       position="22.999995,0.99999888"
       orientation="-22,0"
       id="guide2991" />
    <sodipodi:guide
       position="22.999995,22.999999"
       orientation="0,-22"
       id="guide2993" />
    <inkscape:grid
       type="xygrid"
       id="grid2989" />
  </sodipodi:namedview>
  <metadata
     id="metadata4835">
    <rdf:RDF>
      <cc:Work
         rdf:about="">
        <dc:format>image/svg+xml</dc:format>
        <dc:type
           rdf:resource="http://purl.org/dc/dcmitype/StillImage" />
        <dc:title />
      </cc:Work>
    </rdf:RDF>
  </metadata>
  <g
     id="layer1"
     inkscape:label="Layer 1"
     inkscape:groupmode="layer"
     transform="translate(0,-8)">
    <g
       id="g4770"
       transform="matrix(1.7777778,0,0,1.7777778,-205.48441,-31.997877)">
      <g
         transform="matrix(0.10044642,0,0,0.10044642,112.69212,19.826932)"
         id="g8959"
         style="display:inline;filter:url(#filter8967)">
        <rect
           style="display:inline;opacity:1;fill:none;fill-opacity:1;stroke:#ffffff;stroke-width:3.36000024;stroke-miterlimit:4;stroke-dasharray:none;stroke-opacity:1"
           id="rect4861-3"
           width="112"
           height="54"
           x="40.107246"
           y="95.939217"
           ry="9" />
        <path
           inkscape:connector-curvature="0"
           style="display:inline;opacity:1;fill:none;fill-opacity:1;stroke:#ffffff;stroke-width:3.36000024;stroke-miterlimit:4;stroke-dasharray:none;stroke-opacity:1"
           d="m 89.101972,67.940648 c -2.216,0 -3.99219,1.787126 -3.99219,4.003125 l 0,21.995314 c 0,0.7445 0.2501,1.40586 0.60157,2.00156 l 20.792188,0 c 0.35145,-0.5957 0.60156,-1.25706 0.60156,-2.00156 l 0,-21.995314 c 0,-2.215999 -1.78713,-4.003125 -4.00313,-4.003125 l -13.999998,0 z"
           id="rect4868-6" />
        <path
           style="display:inline;fill:#ffffff;fill-opacity:1;fill-rule:evenodd;stroke:none;stroke-width:3.36000024;stroke-linecap:butt;stroke-linejoin:miter;stroke-miterlimit:4;stroke-dasharray:none;stroke-opacity:1"
           d="m 48.107252,95.939217 c -4.432,0 -8,3.568 -8,8.000003 l 0,18.49023 c 1.51404,-2.64913 2.35149,0.79675 3.29289,0.2273 3.33857,-2.01955 1.85116,-11.0502 4.70711,-10.71751 2.85595,0.3327 7.68359,6.60101 7.59459,10.86375 -0.0981,5.00302 2.19452,6.70702 2.82717,6.08976 3.68702,-3.59734 2.01088,-5.69296 4.63212,-10.4043 2.4605,-3.53227 7.48005,-11.53404 9.77815,-7.2914 2.29809,4.24264 1.94398,9.89933 5.30273,10.78321 3.35876,0.88389 11.81857,-13.27395 16.04478,-10.7359 2.40855,1.44646 4.69114,11.4094 5.41934,17.64437 0.316458,2.70952 -1.45383,7.84354 -0.90029,9.50833 0.40774,1.22625 1.809238,1.83213 2.503848,1.93523 1.12938,0.16767 2.1774,-1.3309 2.02485,-3.29444 -0.15787,-2.0321 -1.95303,-3.86769 -1.29976,-6.33487 0.45976,-1.73644 2.05715,-5.61917 4.78544,-6.53104 2.76369,-0.92372 1.30956,-6.95123 2.28588,-7.55718 3.00973,-1.86792 7.17888,0.93034 10.62614,0.11553 2.92122,-0.69049 5.21356,-4.18804 8.00781,-4.11914 1.96308,0.0482 5.86104,0.5409 7.16098,3.90774 1.97,5.10228 -0.62149,12.91425 4.14762,14.65476 2.07388,0.75686 3.00951,-5.30389 5.48438,-3.7129 2.47488,1.59099 1.76938,7.24698 3.1836,8.13086 0.86701,0.54192 2.92396,-1.24401 4.39062,-3.3164 l 0,-28.33594 c 0,-4.432003 -3.56801,-8.000003 -8,-8.000003 z"
           id="path4863"
           inkscape:connector-curvature="0"
           sodipodi:nodetypes="sscazcscsscsssssssassasscsss" />
        <path
           style="display:inline;fill:#ffffff;fill-opacity:1;fill-rule:evenodd;stroke:#ffffff;stroke-width:3.36000024;stroke-linecap:butt;stroke-linejoin:miter;stroke-miterlimit:4;stroke-dasharray:none;stroke-opacity:1"
           d="m 95.857252,39.939213 c 0,0 1,6.750001 -0.75,7.250001 -1.75,0.500001 -4.6135,2.794916 -5.43934,5.15165 -0.91566,2.613053 -0.23867,5.829546 1.14644,8.22703 1.15852,2.005253 5.48224,4.267767 5.48224,4.267767 0,0 8.387578,-4.952175 7.300258,-11.580583 -0.89421,-5.451082 -7.739598,-13.315865 -7.739598,-13.315865 z"
           id="path4870-7"
           inkscape:connector-curvature="0"
           sodipodi:nodetypes="csaacsc" />
        <circle
           style="display:inline;opacity:1;fill:#ffffff;fill-opacity:1;stroke:none;stroke-width:3.36000013;stroke-miterlimit:4;stroke-dasharray:none;stroke-opacity:1"
           id="path4872"
           cx="70.107239"
           cy="132.93921"
           r="9" />
        <circle
           r="9"
           cy="132.93921"
           cx="122.10728"
           id="circle4874"
           style="display:inline;opacity:1;fill:#ffffff;fill-opacity:1;stroke:none;stroke-width:3.36000013;stroke-miterlimit:4;stroke-dasharray:none;stroke-opacity:1" />
      </g>
    </g>
  </g>
</svg>
